<svg xmlns="http://www.w3.org/2000/svg" width="65" height="65" viewBox="0 0 65 65">
  <g id="Group_33540" data-name="Group 33540" transform="translate(-1312 -15158)">
    <circle id="Ellipse_805" data-name="Ellipse 805" cx="32.5" cy="32.5" r="32.5" transform="translate(1312 15158)" fill="rgba(0,157,244,0.1)"/>
    <g id="Icon_feather-users" data-name="Icon feather-users" transform="translate(1328.365 15173.5)">
      <path id="Path_71158" data-name="Path 71158" d="M23.722,30.833V28.055A5.555,5.555,0,0,0,18.166,22.5H7.055A5.555,5.555,0,0,0,1.5,28.055v2.778" transform="translate(0 -1.334)" fill="none" stroke="#009df4" stroke-linecap="round" stroke-linejoin="round" stroke-width="2"/>
      <path id="Path_71159" data-name="Path 71159" d="M18.611,10.055A5.555,5.555,0,1,1,13.055,4.5a5.555,5.555,0,0,1,5.555,5.555Z" transform="translate(-0.445)" fill="none" stroke="#009df4" stroke-linecap="round" stroke-linejoin="round" stroke-width="2"/>
      <path id="Path_71160" data-name="Path 71160" d="M34.167,30.848V28.07A5.555,5.555,0,0,0,30,22.7" transform="translate(-2.112 -1.348)" fill="none" stroke="#009df4" stroke-linecap="round" stroke-linejoin="round" stroke-width="2"/>
      <path id="Path_71161" data-name="Path 71161" d="M24,4.7a5.555,5.555,0,0,1,0,10.764" transform="translate(-1.667 -0.014)" fill="none" stroke="#009df4" stroke-linecap="round" stroke-linejoin="round" stroke-width="2"/>
    </g>
  </g>
</svg>
